# xmcd CD database file
#
# Track frame offsets:
#	150
#	21972
#	43720
#	66393
#
# Disc length: 1186 seconds
#
# Revision: 0
# Processed by: cddbd v1.5PL3 Copyright (c) Steve Scherf et al.
# Submitted via: CDex 1.40Release
#
DISCID=3304a004
DTITLE=HELLRAISER CARTEL - HELLRAISER CARTEL
DYEAR=2002
DGENRE=ヒップ ホップ (一般)
TTITLE0=SUPER EMCEE'S PT.1(LETHAL WEAPON PT.2)
TTITLE1=SUPER EMCEE'S PT.1(LETHAL WEAPON PT.2) "INSTRUMENTAL"
TTITLE2=SUPA MC'S PT.2(L.W PT.3)[SKY HIGH MIX]
TTITLE3=SUPA MC'S PT.2(L.W PT.3)[SKY HIGH MIX] "INSTRUMENTAL"
EXTD=YEAR: 2002
EXTT0=
EXTT1=
EXTT2=
EXTT3=
PLAYORDER=
